{
.appVersion = "3260";
.storedFileType = "public.opentype-font";
.formatVersion = 3;
customParameters = (
{
name = panose;
value = (
0,
0,
0,
0,
0,
0,
0,
0,
0,
0
);
},
{
name = unicodeRanges;
value = (
0,
1,
5,
31,
33,
37,
57,
68
);
},
{
name = blueScale;
value = 0.037;
},
{
name = glyphOrder;
value = (
.notdef,
space,
A,
B,
C,
D,
E,
F,
G,
H,
I,
J,
K,
L,
M,
N,
O,
P,
Q,
R,
S,
T,
U,
V,
W,
X,
Y,
Z,
E_N_S,
a,
b,
c,
d,
e,
f,
g,
h,
i,
j,
k,
l,
m,
n,
o,
p,
q,
r,
s,
t,
u,
v,
w,
x,
y,
z,
zero,
one,
two,
three,
four,
five,
six,
seven,
eight,
nine,
period,
comma,
colon,
exclam,
question,
slash,
uniFF07,
hyphen,
underscore,
parenleft,
parenright,
quoteright,
uni2035,
quotesingle,
uni26F0FE0F,
u1F9D7,
u1FAA8,
at,
minute,
Euro,
arrowup,
arrowright,
arrowdown,
arrowleft,
acute,
uni02BC
);
}
);
date = "2024-10-06 15:45:28 +0000";
familyName = Edlinger;
fontMaster = (
{
customParameters = (
{
name = typoAscender;
value = 900;
},
{
name = typoDescender;
value = -200;
},
{
name = typoLineGap;
value = 100;
},
{
name = winAscent;
value = 1000;
},
{
name = winDescent;
value = 200;
},
{
name = hheaAscender;
value = 1000;
},
{
name = hheaDescender;
value = -200;
},
{
name = strikeoutPosition;
value = 250;
},
{
name = strikeoutSize;
value = 50;
},
{
name = underlinePosition;
value = -125;
}
);
id = m01;
metricValues = (
{
over = 16;
pos = 900;
},
{
over = 16;
pos = 820;
},
{
over = 16;
pos = 500;
},
{
over = -16;
},
{
over = -16;
pos = -200;
},
{
over = -16;
}
);
name = Regular;
}
);
glyphs = (
{
glyphname = .notdef;
layers = (
{
.lastUpdate = 755016480.986;
hints = (
{
horizontal = 1;
place = (826,74);
type = Stem;
},
{
horizontal = 1;
place = (749,41);
type = Stem;
},
{
horizontal = 1;
place = (684,29);
type = Stem;
},
{
horizontal = 1;
place = (607,40);
type = Stem;
},
{
horizontal = 1;
place = (540,30);
type = Stem;
},
{
horizontal = 1;
place = (474,30);
type = Stem;
},
{
horizontal = 1;
place = (463,41);
type = Stem;
},
{
horizontal = 1;
place = (402,25);
type = Stem;
},
{
horizontal = 1;
place = (340,24);
type = Stem;
},
{
horizontal = 1;
place = (252,27);
type = Stem;
},
{
horizontal = 1;
place = (150,66);
type = Stem;
},
{
horizontal = 1;
place = (62,52);
type = Stem;
},
{
horizontal = 1;
place = (0,26);
type = Stem;
},
{
horizontal = 1;
place = (-88,52);
type = Stem;
},
{
horizontal = 1;
place = (-200,76);
type = Stem;
},
{
place = (366,85);
type = Stem;
},
{
place = (294,157);
type = Stem;
},
{
place = (294,36);
type = Stem;
},
{
place = (220,231);
type = Stem;
},
{
place = (220,36);
type = Stem;
},
{
place = (102,228);
type = Stem;
},
{
place = (102,154);
type = Stem;
},
{
place = (102,83);
type = Stem;
},
{
place = (102,82);
type = Stem;
}
);
layerId = m01;
shapes = (
{
closed = 1;
nodes = (
(451,900,l),
(102,900,l),
(102,-200,l),
(451,-200,l)
);
},
{
closed = 1;
nodes = (
(184,-124,l),
(184,-88,l),
(261,-36,l),
(184,-36,l),
(184,0,l),
(366,0,l),
(366,-36,l),
(331,-36,l),
(254,-88,l),
(366,-88,l),
(366,-124,l)
);
},
{
closed = 1;
nodes = (
(184,26,l),
(184,150,l),
(366,150,l),
(366,26,l)
);
},
{
closed = 1;
nodes = (
(184,216,l),
(184,340,l),
(220,340,l),
(220,252,l),
(330,252,l),
(330,304,l),
(294,304,l),
(294,279,l),
(256,279,l),
(256,340,l),
(366,340,l),
(366,216,l)
);
},
{
closed = 1;
nodes = (
(184,364,l),
(184,402,l),
(330,402,l),
(330,474,l),
(366,474,l),
(366,364,l)
);
},
{
closed = 1;
nodes = (
(184,427,l),
(184,463,l),
(256,463,l),
(256,504,l),
(184,504,l),
(184,540,l),
(366,540,l),
(366,504,l),
(294,504,l),
(294,427,l)
);
},
{
closed = 1;
nodes = (
(184,570,l),
(184,684,l),
(294,684,l),
(294,607,l),
(366,607,l),
(366,570,l)
);
},
{
closed = 1;
nodes = (
(184,713,l),
(184,749,l),
(256,749,l),
(256,790,l),
(185,790,l),
(185,826,l),
(366,826,l),
(366,790,l),
(294,790,l),
(294,749,l),
(366,749,l),
(366,713,l)
);
},
{
closed = 1;
nodes = (
(220,62,l),
(330,62,l),
(330,114,l),
(220,114,l)
);
},
{
closed = 1;
nodes = (
(220,607,l),
(256,607,l),
(256,647,l),
(220,647,l)
);
}
);
width = 550;
}
);
note = .notdef;
},
{
glyphname = A;
layers = (
{
.lastUpdate = 755016480.987;
hints = (
{
horizontal = 1;
place = (820,-20);
target = down;
type = TopGhost;
},
{
horizontal = 1;
place = (0,21);
target = up;
type = BottomGhost;
},
{
horizontal = 1;
place = (-1,21);
target = up;
type = BottomGhost;
},
{
place = (375,160);
type = Stem;
}
);
layerId = m01;
shapes = (
{
closed = 1;
nodes = (
(85,819,l),
(15,-1,l),
(216,-1,l),
(375,199,l),
(375,-1,l),
(535,0,l),
(535,820,l)
);
}
);
width = 575;
}
);
note = A;
unicode = 65;
},
{
glyphname = B;
layers = (
{
.lastUpdate = 755016480.987;
hints = (
{
horizontal = 1;
place = (820,-20);
target = down;
type = TopGhost;
},
{
horizontal = 1;
place = (-1,21);
target = up;
type = BottomGhost;
},
{
place = (40,522);
type = Stem;
}
);
layerId = m01;
shapes = (
{
closed = 1;
nodes = (
(40,819,l),
(40,-1,l),
(520,0,l),
(562,343,l),
(429,540,l),
(546,657,l),
(440,820,l)
);
}
);
width = 577;
}
);
note = B;
unicode = 66;
},
{
glyphname = C;
layers = (
{
.lastUpdate = 755016480.987;
hints = (
{
horizontal = 1;
place = (820,-20);
target = down;
type = TopGhost;
},
{
horizontal = 1;
place = (0,21);
target = up;
type = BottomGhost;
},
{
place = (30,520);
type = Stem;
}
);
layerId = m01;
shapes = (
{
closed = 1;
nodes = (
(220,819,l),
(30,528,l),
(50,-1,l),
(550,0,l),
(550,310,l),
(408,450,l),
(550,575,l),
(550,820,l)
);
}
);
width = 580;
}
);
note = C;
unicode = 67;
},
{
glyphname = D;
layers = (
{
.lastUpdate = 755016480.987;
hints = (
{
horizontal = 1;
place = (829,-20);
target = down;
type = TopGhost;
},
{
horizontal = 1;
place = (0,21);
target = up;
type = BottomGhost;
},
{
place = (40,610);
type = Stem;
}
);
layerId = m01;
shapes = (
{
closed = 1;
nodes = (
(460,829,l),
(40,810,l),
(40,0,l),
(421,0,l),
(650,488,l)
);
}
);
width = 650;
}
);
note = D;
unicode = 68;
},
{
glyphname = E;
layers = (
{
.lastUpdate = 755016480.987;
hints = (
{
horizontal = 1;
place = (820,-20);
target = down;
type = TopGhost;
},
{
horizontal = 1;
place = (0,21);
target = up;
type = BottomGhost;
},
{
place = (40,470);
type = Stem;
}
);
layerId = m01;
shapes = (
{
closed = 1;
nodes = (
(40,819,l),
(40,-1,l),
(510,0,l),
(510,310,l),
(408,450,l),
(510,575,l),
(332,575,l),
(510,820,l)
);
}
);
width = 530;
}
);
note = E;
unicode = 69;
},
{
glyphname = F;
layers = (
{
.lastUpdate = 755016480.987;
hints = (
{
horizontal = 1;
place = (820,-20);
target = down;
type = TopGhost;
},
{
horizontal = 1;
place = (665,155);
type = Stem;
},
{
horizontal = 1;
place = (0,21);
target = up;
type = BottomGhost;
},
{
place = (40,470);
type = Stem;
}
);
layerId = m01;
shapes = (
{
closed = 1;
nodes = (
(40,819,l),
(40,-1,l),
(439,0,l),
(439,428,l),
(510,495,l),
(362,665,l),
(510,820,l)
);
}
);
width = 520;
}
);
note = F;
unicode = 70;
},
{
glyphname = G;
layers = (
{
.lastUpdate = 755016480.987;
hints = (
{
horizontal = 1;
place = (-1,145);
type = Stem;
},
{
place = (30,570);
type = Stem;
}
);
layerId = m01;
shapes = (
{
closed = 1;
nodes = (
(30,779,l),
(60,-1,l),
(600,0,l),
(560,455,l),
(500,455,l),
(422,144,l),
(282,144,l),
(600,840,l)
);
}
);
width = 605;
}
);
note = G;
unicode = 71;
},
{
glyphname = H;
layers = (
{
hints = (
{
horizontal = 1;
place = (820,-20);
target = down;
type = TopGhost;
},
{
horizontal = 1;
place = (819,-20);
target = down;
type = TopGhost;
},
{
horizontal = 1;
place = (0,21);
target = up;
type = BottomGhost;
},
{
horizontal = 1;
place = (-1,21);
target = up;
type = BottomGhost;
},
{
place = (405,155);
type = Stem;
},
{
place = (390,170);
type = Stem;
}
);
layerId = m01;
shapes = (
{
closed = 1;
nodes = (
(40,819,l),
(40,-1,l),
(241,-1,l),
(281,169,l),
(390,169,l),
(390,-1,l),
(560,0,l),
(560,820,l),
(410,819,l),
(400,719,l),
(280,719,l),
(260,819,l)
);
}
);
width = 600;
}
);
note = H;
unicode = 72;
},
{
glyphname = I;
layers = (
{
.lastUpdate = 755016480.987;
hints = (
{
horizontal = 1;
place = (0,21);
target = up;
type = BottomGhost;
},
{
place = (20,360);
type = Stem;
}
);
layerId = m01;
shapes = (
{
closed = 1;
nodes = (
(20,810,l),
(55,-1,l),
(360,0,l),
(360,580,l),
(172,611,l),
(380,660,l),
(360,840,l)
);
}
);
width = 400;
}
);
note = I;
unicode = 73;
},
{
glyphname = J;
layers = (
{
.lastUpdate = 755016480.987;
hints = (
{
horizontal = 1;
place = (820,-20);
target = down;
type = TopGhost;
},
{
horizontal = 1;
place = (0,21);
target = up;
type = BottomGhost;
},
{
place = (20,520);
type = Stem;
}
);
layerId = m01;
shapes = (
{
closed = 1;
nodes = (
(20,449,l),
(40,-1,l),
(540,0,l),
(540,820,l),
(80,819,l),
(180,419,l)
);
}
);
width = 580;
}
);
note = J;
unicode = 74;
},
{
glyphname = K;
layers = (
{
.lastUpdate = 755016480.987;
hints = (
{
horizontal = 1;
place = (819,-20);
target = down;
type = TopGhost;
},
{
horizontal = 1;
place = (-2,21);
target = up;
type = BottomGhost;
},
{
place = (40,170);
type = Stem;
}
);
layerId = m01;
shapes = (
{
closed = 1;
nodes = (
(670,29,l),
(496,409,l),
(630,819,l),
(389,819,l),
(210,589,l),
(210,819,l),
(40,818,l),
(40,-2,l),
(350,-1,l),
(370,149,l),
(490,-31,l)
);
}
);
width = 660;
}
);
note = K;
unicode = 75;
},
{
glyphname = L;
layers = (
{
.lastUpdate = 755016480.987;
hints = (
{
horizontal = 1;
place = (820,-20);
target = down;
type = TopGhost;
},
{
horizontal = 1;
place = (0,21);
target = up;
type = BottomGhost;
},
{
place = (40,500);
type = Stem;
}
);
layerId = m01;
shapes = (
{
closed = 1;
nodes = (
(540,299,l),
(380,269,l),
(480,819,l),
(40,820,l),
(40,0,l),
(520,-1,l)
);
}
);
width = 550;
}
);
note = L;
unicode = 76;
},
{
glyphname = M;
layers = (
{
.lastUpdate = 755016480.987;
hints = (
{
horizontal = 1;
place = (820,-20);
target = down;
type = TopGhost;
},
{
horizontal = 1;
place = (819,-20);
target = down;
type = TopGhost;
},
{
horizontal = 1;
place = (0,21);
target = up;
type = BottomGhost;
},
{
horizontal = 1;
place = (-1,21);
target = up;
type = BottomGhost;
},
{
place = (670,119);
type = Stem;
}
);
layerId = m01;
shapes = (
{
closed = 1;
nodes = (
(52,819,l),
(30,-1,l),
(391,-1,l),
(391,219,l),
(540,0,l),
(670,140,l),
(670,0,l),
(800,0,l),
(778,820,l),
(630,819,l),
(490,689,l),
(410,819,l)
);
}
);
width = 830;
}
);
note = M;
unicode = 77;
},
{
glyphname = N;
layers = (
{
hints = (
{
horizontal = 1;
place = (820,-20);
target = down;
type = TopGhost;
},
{
horizontal = 1;
place = (819,-20);
target = down;
type = TopGhost;
},
{
horizontal = 1;
place = (0,21);
target = up;
type = BottomGhost;
},
{
horizontal = 1;
place = (-1,21);
target = up;
type = BottomGhost;
},
{
place = (380,180);
type = Stem;
},
{
place = (40,121);
type = Stem;
}
);
layerId = m01;
shapes = (
{
closed = 1;
nodes = (
(40,819,l),
(40,-1,l),
(161,-1,l),
(161,289,l),
(330,-1,l),
(560,0,l),
(560,820,l),
(380,819,l),
(380,679,l),
(250,819,l)
);
}
);
width = 600;
}
);
note = N;
unicode = 78;
},
{
glyphname = O;
layers = (
{
.lastUpdate = 755016480.987;
hints = (
{
horizontal = 1;
place = (0,21);
target = up;
type = BottomGhost;
},
{
place = (10,690);
type = Stem;
}
);
layerId = m01;
shapes = (
{
closed = 1;
nodes = (
(558,0,l),
(700,417,l),
(575,841,l),
(129,754,l),
(10,535,l),
(85,0,l)
);
}
);
width = 705;
}
);
note = O;
unicode = 79;
},
{
glyphname = P;
layers = (
{
.lastUpdate = 755016480.987;
hints = (
{
horizontal = 1;
place = (829,-20);
target = down;
type = TopGhost;
},
{
horizontal = 1;
place = (-1,21);
target = up;
type = BottomGhost;
},
{
place = (40,520);
type = Stem;
}
);
layerId = m01;
shapes = (
{
closed = 1;
nodes = (
(40,829,l),
(40,-1,l),
(401,-1,l),
(441,369,l),
(560,400,l),
(560,800,l)
);
}
);
width = 590;
}
);
note = P;
unicode = 80;
},
{
glyphname = Q;
layers = (
{
.lastUpdate = 755016480.987;
hints = (
{
horizontal = 1;
place = (820,-20);
target = down;
type = TopGhost;
},
{
horizontal = 1;
place = (-1,21);
target = up;
type = BottomGhost;
},
{
place = (30,640);
type = Stem;
}
);
layerId = m01;
shapes = (
{
closed = 1;
nodes = (
(30,819,l),
(60,-1,l),
(419,109,l),
(527,-18,l),
(670,176,l),
(540,320,l),
(640,476,l),
(640,820,l)
);
}
);
width = 670;
}
);
note = Q;
unicode = 81;
},
{
glyphname = R;
layers = (
{
.lastUpdate = 755016480.987;
hints = (
{
horizontal = 1;
place = (829,-20);
target = down;
type = TopGhost;
},
{
horizontal = 1;
place = (-1,21);
target = up;
type = BottomGhost;
},
{
place = (40,125);
type = Stem;
}
);
layerId = m01;
shapes = (
{
closed = 1;
nodes = (
(40,829,l),
(40,-1,l),
(165,0,l),
(229,89,l),
(581,-1,l),
(371,419,l),
(560,460,l),
(560,800,l)
);
}
);
width = 596;
}
);
note = R;
unicode = 82;
},
{
glyphname = S;
layers = (
{
.lastUpdate = 755016480.987;
hints = (
{
horizontal = 1;
place = (-1,821);
type = Stem;
},
{
place = (10,510);
type = Stem;
}
);
layerId = m01;
shapes = (
{
closed = 1;
nodes = (
(105,820,l),
(460,820,l),
(396,606,l),
(520,586,l),
(351,-1,l),
(10,-1,l),
(110,270,l),
(10,588,l)
);
}
);
width = 525;
}
);
note = S;
unicode = 83;
},
{
glyphname = T;
layers = (
{
.lastUpdate = 755016480.987;
hints = (
{
horizontal = 1;
place = (820,-20);
target = down;
type = TopGhost;
},
{
horizontal = 1;
place = (0,21);
target = up;
type = BottomGhost;
},
{
place = (20,540);
type = Stem;
}
);
layerId = m01;
shapes = (
{
closed = 1;
nodes = (
(40,819,l),
(20,449,l),
(91,449,l),
(131,0,l),
(480,0,l),
(460,449,l),
(560,450,l),
(560,820,l)
);
}
);
width = 590;
}
);
note = T;
unicode = 84;
},
{
glyphname = U;
layers = (
{
.lastUpdate = 755016480.987;
hints = (
{
horizontal = 1;
place = (820,-20);
target = down;
type = TopGhost;
},
{
horizontal = 1;
place = (-16,21);
target = up;
type = BottomGhost;
},
{
place = (385,165);
type = Stem;
}
);
layerId = m01;
shapes = (
{
closed = 1;
nodes = (
(30,221,l),
(247,-16,l),
(550,40,l),
(550,820,l),
(380,820,l),
(390,679,l),
(260,679,l),
(220,809,l),
(70,779,l)
);
}
);
width = 590;
}
);
note = U;
unicode = 85;
},
{
glyphname = V;
layers = (
{
.lastUpdate = 755016480.987;
hints = (
{
horizontal = 1;
place = (829,-20);
target = down;
type = TopGhost;
},
{
horizontal = 1;
place = (819,-20);
target = down;
type = TopGhost;
},
{
horizontal = 1;
place = (0,21);
target = up;
type = BottomGhost;
},
{
place = (5,810);
type = Stem;
}
);
layerId = m01;
shapes = (
{
closed = 1;
nodes = (
(135,819,l),
(5,369,l),
(151,0,l),
(725,0,l),
(815,640,l),
(505,829,l),
(455,629,l)
);
}
);
width = 830;
}
);
note = V;
unicode = 86;
},
{
glyphname = W;
layers = (
{
.lastUpdate = 755016480.987;
hints = (
{
horizontal = 1;
place = (829,-20);
target = down;
type = TopGhost;
},
{
horizontal = 1;
place = (819,-20);
target = down;
type = TopGhost;
},
{
horizontal = 1;
place = (-10,21);
target = up;
type = BottomGhost;
},
{
place = (30,880);
type = Stem;
}
);
layerId = m01;
shapes = (
{
closed = 1;
nodes = (
(30,819,l),
(66,-10,l),
(434,80,l),
(820,-10,l),
(910,640,l),
(600,829,l),
(550,629,l),
(404,756,l),
(228,619,l)
);
}
);
width = 925;
}
);
note = W;
unicode = 87;
},
{
glyphname = X;
layers = (
{
.lastUpdate = 755016480.987;
hints = (
{
horizontal = 1;
place = (820,-20);
target = down;
type = TopGhost;
},
{
horizontal = 1;
place = (819,-20);
target = down;
type = TopGhost;
},
{
horizontal = 1;
place = (0,21);
target = up;
type = BottomGhost;
},
{
horizontal = 1;
place = (-1,21);
target = up;
type = BottomGhost;
},
{
place = (20,650);
type = Stem;
}
);
layerId = m01;
shapes = (
{
closed = 1;
nodes = (
(20,819,l),
(90,483,l),
(20,-1,l),
(241,-1,l),
(241,219,l),
(410,-1,l),
(660,0,l),
(550,379,l),
(670,820,l),
(520,819,l),
(440,719,l),
(310,819,l)
);
}
);
width = 690;
}
);
note = X;
unicode = 88;
},
{
glyphname = Y;
layers = (
{
.lastUpdate = 755016480.987;
hints = (
{
horizontal = 1;
place = (820,-20);
target = down;
type = TopGhost;
},
{
horizontal = 1;
place = (819,-20);
target = down;
type = TopGhost;
},
{
horizontal = 1;
place = (0,21);
target = up;
type = BottomGhost;
},
{
place = (20,500);
type = Stem;
}
);
layerId = m01;
shapes = (
{
closed = 1;
nodes = (
(20,520,l),
(180,380,l),
(80,0,l),
(520,-1,l),
(520,819,l),
(333,739,l),
(40,820,l)
);
}
);
width = 580;
}
);
note = Y;
unicode = 89;
},
{
glyphname = Z;
layers = (
{
.lastUpdate = 755016480.987;
hints = (
{
horizontal = 1;
place = (820,-20);
target = down;
type = TopGhost;
},
{
horizontal = 1;
place = (0,21);
target = up;
type = BottomGhost;
},
{
place = (20,520);
type = Stem;
}
);
layerId = m01;
shapes = (
{
closed = 1;
nodes = (
(20,819,l),
(170,585,l),
(20,279,l),
(20,-1,l),
(540,0,l),
(360,283,l),
(540,630,l),
(540,820,l)
);
}
);
width = 560;
}
);
note = Z;
unicode = 90;
},
{
glyphname = E_N_S;
layers = (
{
.lastUpdate = 755016480.987;
hints = (
{
horizontal = 1;
place = (820,-20);
target = down;
type = TopGhost;
},
{
horizontal = 1;
place = (780,84);
type = Stem;
},
{
horizontal = 1;
place = (0,21);
target = up;
type = BottomGhost;
},
{
horizontal = 1;
place = (-1,21);
target = up;
type = BottomGhost;
},
{
place = (20,1250);
type = Stem;
}
);
layerId = m01;
shapes = (
{
closed = 1;
nodes = (
(20,769,l),
(50,-1,l),
(480,0,l),
(490,310,l),
(358,440,l),
(450,552,l),
(282,548,l),
(470,820,l)
);
},
{
closed = 1;
nodes = (
(362,588,l),
(540,590,l),
(428,450,l),
(545,324,l),
(535,181,l),
(650,-1,l),
(760,-1,l),
(860,271,l),
(739,589,l),
(875,864,l),
(723,864,l),
(703,694,l),
(530,820,l)
);
},
{
closed = 1;
nodes = (
(800,590,l),
(894,780,l),
(1189,780,l),
(1146,606,l),
(1270,586,l),
(1101,-1,l),
(820,-1,l),
(920,270,l)
);
}
);
width = 1275;
}
);
note = E_N_S;
},
{
glyphname = a;
layers = (
{
.lastUpdate = 755016480.987;
hints = (
{
horizontal = 1;
place = (820,-20);
target = down;
type = TopGhost;
},
{
horizontal = 1;
place = (0,21);
target = up;
type = BottomGhost;
},
{
horizontal = 1;
place = (-1,21);
target = up;
type = BottomGhost;
},
{
place = (375,160);
type = Stem;
}
);
layerId = m01;
shapes = (
{
closed = 1;
nodes = (
(85,819,l),
(15,-1,l),
(216,-1,l),
(375,199,l),
(375,-1,l),
(535,0,l),
(535,820,l)
);
}
);
width = 575;
}
);
note = a;
unicode = 97;
},
{
glyphname = b;
layers = (
{
.lastUpdate = 755016480.987;
hints = (
{
horizontal = 1;
place = (820,-20);
target = down;
type = TopGhost;
},
{
horizontal = 1;
place = (-1,21);
target = up;
type = BottomGhost;
},
{
place = (40,522);
type = Stem;
}
);
layerId = m01;
shapes = (
{
closed = 1;
nodes = (
(40,819,l),
(40,-1,l),
(520,0,l),
(562,343,l),
(429,540,l),
(546,657,l),
(440,820,l)
);
}
);
width = 577;
}
);
note = b;
unicode = 98;
},
{
glyphname = c;
layers = (
{
.lastUpdate = 755016480.987;
hints = (
{
horizontal = 1;
place = (820,-20);
target = down;
type = TopGhost;
},
{
horizontal = 1;
place = (0,21);
target = up;
type = BottomGhost;
},
{
place = (30,520);
type = Stem;
}
);
layerId = m01;
shapes = (
{
closed = 1;
nodes = (
(220,819,l),
(30,528,l),
(50,-1,l),
(550,0,l),
(550,310,l),
(408,450,l),
(550,575,l),
(550,820,l)
);
}
);
width = 580;
}
);
note = c;
unicode = 99;
},
{
glyphname = d;
layers = (
{
.lastUpdate = 755016480.987;
hints = (
{
horizontal = 1;
place = (829,-20);
target = down;
type = TopGhost;
},
{
horizontal = 1;
place = (0,21);
target = up;
type = BottomGhost;
},
{
place = (40,610);
type = Stem;
}
);
layerId = m01;
shapes = (
{
closed = 1;
nodes = (
(460,829,l),
(40,810,l),
(40,0,l),
(421,0,l),
(650,488,l)
);
}
);
width = 650;
}
);
note = d;
unicode = 100;
},
{
glyphname = e;
layers = (
{
.lastUpdate = 755016480.987;
hints = (
{
horizontal = 1;
place = (820,-20);
target = down;
type = TopGhost;
},
{
horizontal = 1;
place = (0,21);
target = up;
type = BottomGhost;
},
{
place = (40,470);
type = Stem;
}
);
layerId = m01;
shapes = (
{
closed = 1;
nodes = (
(40,819,l),
(40,-1,l),
(510,0,l),
(510,310,l),
(408,450,l),
(510,575,l),
(332,575,l),
(510,820,l)
);
}
);
width = 530;
}
);
note = e;
unicode = 101;
},
{
glyphname = f;
layers = (
{
.lastUpdate = 755016480.987;
hints = (
{
horizontal = 1;
place = (820,-20);
target = down;
type = TopGhost;
},
{
horizontal = 1;
place = (665,155);
type = Stem;
},
{
horizontal = 1;
place = (0,21);
target = up;
type = BottomGhost;
},
{
place = (40,470);
type = Stem;
}
);
layerId = m01;
shapes = (
{
closed = 1;
nodes = (
(40,819,l),
(40,-1,l),
(439,0,l),
(439,428,l),
(510,495,l),
(362,665,l),
(510,820,l)
);
}
);
width = 520;
}
);
note = f;
unicode = 102;
},
{
glyphname = g;
layers = (
{
.lastUpdate = 755016480.987;
hints = (
{
horizontal = 1;
place = (-1,145);
type = Stem;
},
{
place = (30,570);
type = Stem;
}
);
layerId = m01;
shapes = (
{
closed = 1;
nodes = (
(30,779,l),
(60,-1,l),
(600,0,l),
(560,455,l),
(500,455,l),
(422,144,l),
(282,144,l),
(600,840,l)
);
}
);
width = 605;
}
);
note = g;
unicode = 103;
},
{
glyphname = h;
layers = (
{
hints = (
{
horizontal = 1;
place = (820,-20);
target = down;
type = TopGhost;
},
{
horizontal = 1;
place = (819,-20);
target = down;
type = TopGhost;
},
{
horizontal = 1;
place = (0,21);
target = up;
type = BottomGhost;
},
{
horizontal = 1;
place = (-1,21);
target = up;
type = BottomGhost;
},
{
place = (405,155);
type = Stem;
},
{
place = (390,170);
type = Stem;
}
);
layerId = m01;
shapes = (
{
closed = 1;
nodes = (
(40,819,l),
(40,-1,l),
(241,-1,l),
(281,169,l),
(390,169,l),
(390,-1,l),
(560,0,l),
(560,820,l),
(410,819,l),
(400,719,l),
(280,719,l),
(260,819,l)
);
}
);
width = 600;
}
);
note = h;
unicode = 104;
},
{
glyphname = i;
layers = (
{
.lastUpdate = 755016480.987;
hints = (
{
horizontal = 1;
place = (0,21);
target = up;
type = BottomGhost;
},
{
place = (20,360);
type = Stem;
}
);
layerId = m01;
shapes = (
{
closed = 1;
nodes = (
(20,810,l),
(55,-1,l),
(360,0,l),
(360,580,l),
(172,611,l),
(380,660,l),
(360,840,l)
);
}
);
width = 400;
}
);
note = i;
unicode = 105;
},
{
glyphname = j;
layers = (
{
.lastUpdate = 755016480.987;
hints = (
{
horizontal = 1;
place = (820,-20);
target = down;
type = TopGhost;
},
{
horizontal = 1;
place = (0,21);
target = up;
type = BottomGhost;
},
{
place = (20,520);
type = Stem;
}
);
layerId = m01;
shapes = (
{
closed = 1;
nodes = (
(20,449,l),
(40,-1,l),
(540,0,l),
(540,820,l),
(80,819,l),
(180,419,l)
);
}
);
width = 580;
}
);
note = j;
unicode = 106;
},
{
glyphname = k;
layers = (
{
.lastUpdate = 755016480.987;
hints = (
{
horizontal = 1;
place = (819,-20);
target = down;
type = TopGhost;
},
{
horizontal = 1;
place = (-2,21);
target = up;
type = BottomGhost;
},
{
place = (40,170);
type = Stem;
}
);
layerId = m01;
shapes = (
{
closed = 1;
nodes = (
(670,29,l),
(496,409,l),
(630,819,l),
(389,819,l),
(210,589,l),
(210,819,l),
(40,818,l),
(40,-2,l),
(350,-1,l),
(370,149,l),
(490,-31,l)
);
}
);
width = 660;
}
);
note = k;
unicode = 107;
},
{
glyphname = l;
layers = (
{
.lastUpdate = 755016480.987;
hints = (
{
horizontal = 1;
place = (820,-20);
target = down;
type = TopGhost;
},
{
horizontal = 1;
place = (0,21);
target = up;
type = BottomGhost;
},
{
place = (40,500);
type = Stem;
}
);
layerId = m01;
shapes = (
{
closed = 1;
nodes = (
(540,299,l),
(380,269,l),
(480,819,l),
(40,820,l),
(40,0,l),
(520,-1,l)
);
}
);
width = 550;
}
);
note = l;
unicode = 108;
},
{
glyphname = m;
layers = (
{
.lastUpdate = 755016480.987;
hints = (
{
horizontal = 1;
place = (820,-20);
target = down;
type = TopGhost;
},
{
horizontal = 1;
place = (819,-20);
target = down;
type = TopGhost;
},
{
horizontal = 1;
place = (0,21);
target = up;
type = BottomGhost;
},
{
horizontal = 1;
place = (-1,21);
target = up;
type = BottomGhost;
},
{
place = (670,119);
type = Stem;
}
);
layerId = m01;
shapes = (
{
closed = 1;
nodes = (
(52,819,l),
(30,-1,l),
(391,-1,l),
(391,219,l),
(540,0,l),
(670,140,l),
(670,0,l),
(800,0,l),
(778,820,l),
(630,819,l),
(490,689,l),
(410,819,l)
);
}
);
width = 830;
}
);
note = m;
unicode = 109;
},
{
glyphname = n;
layers = (
{
hints = (
{
horizontal = 1;
place = (820,-20);
target = down;
type = TopGhost;
},
{
horizontal = 1;
place = (819,-20);
target = down;
type = TopGhost;
},
{
horizontal = 1;
place = (0,21);
target = up;
type = BottomGhost;
},
{
horizontal = 1;
place = (-1,21);
target = up;
type = BottomGhost;
},
{
place = (380,180);
type = Stem;
},
{
place = (40,121);
type = Stem;
}
);
layerId = m01;
shapes = (
{
closed = 1;
nodes = (
(40,819,l),
(40,-1,l),
(161,-1,l),
(161,289,l),
(330,-1,l),
(560,0,l),
(560,820,l),
(380,819,l),
(380,679,l),
(250,819,l)
);
}
);
width = 600;
}
);
note = n;
unicode = 110;
},
{
glyphname = o;
layers = (
{
.lastUpdate = 755016480.987;
hints = (
{
horizontal = 1;
place = (0,21);
target = up;
type = BottomGhost;
},
{
place = (10,690);
type = Stem;
}
);
layerId = m01;
shapes = (
{
closed = 1;
nodes = (
(558,0,l),
(700,417,l),
(575,841,l),
(129,754,l),
(10,535,l),
(85,0,l)
);
}
);
width = 705;
}
);
note = o;
unicode = 111;
},
{
glyphname = p;
layers = (
{
.lastUpdate = 755016480.987;
hints = (
{
horizontal = 1;
place = (829,-20);
target = down;
type = TopGhost;
},
{
horizontal = 1;
place = (-1,21);
target = up;
type = BottomGhost;
},
{
place = (40,520);
type = Stem;
}
);
layerId = m01;
shapes = (
{
closed = 1;
nodes = (
(40,829,l),
(40,-1,l),
(401,-1,l),
(441,369,l),
(560,400,l),
(560,800,l)
);
}
);
width = 590;
}
);
note = p;
unicode = 112;
},
{
glyphname = q;
layers = (
{
.lastUpdate = 755016480.987;
hints = (
{
horizontal = 1;
place = (820,-20);
target = down;
type = TopGhost;
},
{
horizontal = 1;
place = (-1,21);
target = up;
type = BottomGhost;
},
{
place = (30,640);
type = Stem;
}
);
layerId = m01;
shapes = (
{
closed = 1;
nodes = (
(30,819,l),
(60,-1,l),
(419,109,l),
(527,-18,l),
(670,176,l),
(540,320,l),
(640,476,l),
(640,820,l)
);
}
);
width = 670;
}
);
note = q;
unicode = 113;
},
{
glyphname = r;
layers = (
{
.lastUpdate = 755016480.987;
hints = (
{
horizontal = 1;
place = (829,-20);
target = down;
type = TopGhost;
},
{
horizontal = 1;
place = (-1,21);
target = up;
type = BottomGhost;
},
{
place = (40,125);
type = Stem;
}
);
layerId = m01;
shapes = (
{
closed = 1;
nodes = (
(40,829,l),
(40,-1,l),
(165,0,l),
(229,89,l),
(581,-1,l),
(371,419,l),
(560,460,l),
(560,800,l)
);
}
);
width = 596;
}
);
note = r;
unicode = 114;
},
{
glyphname = s;
layers = (
{
.lastUpdate = 755016480.987;
hints = (
{
horizontal = 1;
place = (-1,821);
type = Stem;
},
{
place = (10,510);
type = Stem;
}
);
layerId = m01;
shapes = (
{
closed = 1;
nodes = (
(105,820,l),
(460,820,l),
(396,606,l),
(520,586,l),
(351,-1,l),
(10,-1,l),
(110,270,l),
(10,588,l)
);
}
);
width = 525;
}
);
note = s;
unicode = 115;
},
{
glyphname = t;
layers = (
{
.lastUpdate = 755016480.987;
hints = (
{
horizontal = 1;
place = (820,-20);
target = down;
type = TopGhost;
},
{
horizontal = 1;
place = (0,21);
target = up;
type = BottomGhost;
},
{
place = (20,540);
type = Stem;
}
);
layerId = m01;
shapes = (
{
closed = 1;
nodes = (
(40,819,l),
(20,449,l),
(91,449,l),
(131,0,l),
(480,0,l),
(460,449,l),
(560,450,l),
(560,820,l)
);
}
);
width = 590;
}
);
note = t;
unicode = 116;
},
{
glyphname = u;
layers = (
{
.lastUpdate = 755016480.987;
hints = (
{
horizontal = 1;
place = (820,-20);
target = down;
type = TopGhost;
},
{
horizontal = 1;
place = (-16,21);
target = up;
type = BottomGhost;
},
{
place = (385,165);
type = Stem;
}
);
layerId = m01;
shapes = (
{
closed = 1;
nodes = (
(30,221,l),
(247,-16,l),
(550,40,l),
(550,820,l),
(380,820,l),
(390,679,l),
(260,679,l),
(220,809,l),
(70,779,l)
);
}
);
width = 590;
}
);
note = u;
unicode = 117;
},
{
glyphname = v;
layers = (
{
.lastUpdate = 755016480.987;
hints = (
{
horizontal = 1;
place = (829,-20);
target = down;
type = TopGhost;
},
{
horizontal = 1;
place = (819,-20);
target = down;
type = TopGhost;
},
{
horizontal = 1;
place = (0,21);
target = up;
type = BottomGhost;
},
{
place = (5,810);
type = Stem;
}
);
layerId = m01;
shapes = (
{
closed = 1;
nodes = (
(135,819,l),
(5,369,l),
(151,0,l),
(725,0,l),
(815,640,l),
(505,829,l),
(455,629,l)
);
}
);
width = 830;
}
);
note = v;
unicode = 118;
},
{
glyphname = w;
layers = (
{
.lastUpdate = 755016480.987;
hints = (
{
horizontal = 1;
place = (829,-20);
target = down;
type = TopGhost;
},
{
horizontal = 1;
place = (819,-20);
target = down;
type = TopGhost;
},
{
horizontal = 1;
place = (-10,21);
target = up;
type = BottomGhost;
},
{
place = (30,880);
type = Stem;
}
);
layerId = m01;
shapes = (
{
closed = 1;
nodes = (
(30,819,l),
(66,-10,l),
(434,80,l),
(820,-10,l),
(910,640,l),
(600,829,l),
(550,629,l),
(404,756,l),
(228,619,l)
);
}
);
width = 925;
}
);
note = w;
unicode = 119;
},
{
glyphname = x;
layers = (
{
.lastUpdate = 755016480.987;
hints = (
{
horizontal = 1;
place = (820,-20);
target = down;
type = TopGhost;
},
{
horizontal = 1;
place = (819,-20);
target = down;
type = TopGhost;
},
{
horizontal = 1;
place = (0,21);
target = up;
type = BottomGhost;
},
{
horizontal = 1;
place = (-1,21);
target = up;
type = BottomGhost;
},
{
place = (20,650);
type = Stem;
}
);
layerId = m01;
shapes = (
{
closed = 1;
nodes = (
(20,819,l),
(90,483,l),
(20,-1,l),
(241,-1,l),
(241,219,l),
(410,-1,l),
(660,0,l),
(550,379,l),
(670,820,l),
(520,819,l),
(440,719,l),
(310,819,l)
);
}
);
width = 690;
}
);
note = x;
unicode = 120;
},
{
glyphname = y;
layers = (
{
.lastUpdate = 755016480.987;
hints = (
{
horizontal = 1;
place = (820,-20);
target = down;
type = TopGhost;
},
{
horizontal = 1;
place = (819,-20);
target = down;
type = TopGhost;
},
{
horizontal = 1;
place = (0,21);
target = up;
type = BottomGhost;
},
{
place = (20,500);
type = Stem;
}
);
layerId = m01;
shapes = (
{
closed = 1;
nodes = (
(20,520,l),
(180,380,l),
(80,0,l),
(520,-1,l),
(520,819,l),
(333,739,l),
(40,820,l)
);
}
);
width = 580;
}
);
note = y;
unicode = 121;
},
{
glyphname = z;
layers = (
{
.lastUpdate = 755016480.987;
hints = (
{
horizontal = 1;
place = (820,-20);
target = down;
type = TopGhost;
},
{
horizontal = 1;
place = (0,21);
target = up;
type = BottomGhost;
},
{
place = (20,520);
type = Stem;
}
);
layerId = m01;
shapes = (
{
closed = 1;
nodes = (
(20,819,l),
(170,585,l),
(20,279,l),
(20,-1,l),
(540,0,l),
(360,283,l),
(540,630,l),
(540,820,l)
);
}
);
width = 560;
}
);
note = z;
unicode = 122;
},
{
glyphname = zero;
layers = (
{
.lastUpdate = 755016480.987;
hints = (
{
horizontal = 1;
place = (0,21);
target = up;
type = BottomGhost;
},
{
place = (30,465);
type = Stem;
}
);
layerId = m01;
shapes = (
{
closed = 1;
nodes = (
(353,0,l),
(495,217,l),
(370,691,l),
(30,511,l),
(70,0,l)
);
}
);
width = 515;
}
);
note = zero;
unicode = 48;
},
{
glyphname = one;
layers = (
{
.lastUpdate = 755016480.987;
hints = (
{
horizontal = 1;
place = (0,21);
target = up;
type = BottomGhost;
},
{
place = (0,365);
type = Stem;
}
);
layerId = m01;
shapes = (
{
closed = 1;
nodes = (
(365,680,l),
(69,650,l),
(0,430,l),
(110,430,l),
(70,0,l),
(365,-1,l)
);
}
);
width = 405;
}
);
note = one;
unicode = 49;
},
{
glyphname = two;
layers = (
{
.lastUpdate = 755016480.987;
hints = (
{
horizontal = 1;
place = (-1,154);
type = Stem;
},
{
place = (20,550);
type = Stem;
}
);
layerId = m01;
shapes = (
{
closed = 1;
nodes = (
(34,670,l),
(160,345,l),
(20,139,l),
(20,-1,l),
(570,0,l),
(340,153,l),
(540,304,l),
(500,670,l)
);
}
);
width = 570;
}
);
note = two;
unicode = 50;
},
{
glyphname = three;
layers = (
{
.lastUpdate = 755016480.987;
hints = (
{
horizontal = 1;
place = (517,-20);
target = down;
type = TopGhost;
},
{
horizontal = 1;
place = (517,152.5);
type = Stem;
},
{
horizontal = 1;
place = (-1,21);
target = up;
type = BottomGhost;
},
{
place = (10,470);
type = Stem;
}
);
layerId = m01;
shapes = (
{
closed = 1;
nodes = (
(318,0,l),
(480,264,l),
(390,434,l),
(480,670,l),
(10,669,l),
(120,517,l),
(10,351,l),
(110,206,l),
(10,-1,l)
);
}
);
width = 490;
}
);
note = three;
unicode = 51;
},
{
glyphname = four;
layers = (
{
.lastUpdate = 755016480.987;
hints = (
{
horizontal = 1;
place = (-1,671);
type = Stem;
},
{
place = (0,570);
type = Stem;
}
);
layerId = m01;
shapes = (
{
closed = 1;
nodes = (
(235,670,l),
(480,670,l),
(446,336,l),
(570,316,l),
(491,-1,l),
(160,-1,l),
(206,207,l),
(0,268,l)
);
}
);
width = 580;
}
);
note = four;
unicode = 52;
},
{
glyphname = five;
layers = (
{
.lastUpdate = 755016480.987;
hints = (
{
horizontal = 1;
place = (510,-20);
target = down;
type = TopGhost;
},
{
place = (10,456);
type = Stem;
}
);
layerId = m01;
shapes = (
{
closed = 1;
nodes = (
(81,670,l),
(426,670,l),
(426,510,l),
(254,466,l),
(466,266,l),
(387,-1,l),
(59,0,l),
(59,193,l),
(160,298,l),
(10,406,l)
);
}
);
width = 496;
}
);
note = five;
unicode = 53;
},
{
glyphname = six;
layers = (
{
.lastUpdate = 755016480.987;
hints = (
{
horizontal = 1;
place = (-20,700);
type = Stem;
},
{
place = (5,470);
type = Stem;
}
);
layerId = m01;
shapes = (
{
closed = 1;
nodes = (
(5,100,l),
(415,-20,l),
(475,330,l),
(235,418,l),
(336,680,l),
(85,680,l)
);
}
);
width = 480;
}
);
note = six;
unicode = 54;
},
{
glyphname = seven;
layers = (
{
hints = (
{
horizontal = 1;
place = (0,21);
target = up;
type = BottomGhost;
},
{
place = (40,535);
type = Stem;
}
);
layerId = m01;
shapes = (
{
closed = 1;
nodes = (
(575,680,l),
(49,620,l),
(80,500,l),
(271,500,l),
(40,0,l),
(425,-1,l)
);
}
);
width = 600;
}
);
note = seven;
unicode = 55;
},
{
glyphname = eight;
layers = (
{
.lastUpdate = 755016480.987;
hints = (
{
horizontal = 1;
place = (-1,671);
type = Stem;
},
{
place = (10,457);
type = Stem;
}
);
layerId = m01;
shapes = (
{
closed = 1;
nodes = (
(82,670,l),
(427,670,l),
(427,540,l),
(312,419,l),
(467,296,l),
(388,-1,l),
(110,0,l),
(10,223,l),
(160,431,l),
(11,530,l)
);
}
);
width = 477;
}
);
note = eight;
unicode = 56;
},
{
glyphname = nine;
layers = (
{
.lastUpdate = 755016480.987;
hints = (
{
horizontal = 1;
place = (-10,21);
target = up;
type = BottomGhost;
},
{
place = (0,470);
type = Stem;
}
);
layerId = m01;
shapes = (
{
closed = 1;
nodes = (
(470,580,l),
(180,700,l),
(0,430,l),
(250,262,l),
(149,20,l),
(390,-10,l)
);
}
);
width = 485;
}
);
note = nine;
unicode = 57;
},
{
glyphname = period;
layers = (
{
.lastUpdate = 755016480.987;
hints = (
{
horizontal = 1;
place = (-1,21);
target = up;
type = BottomGhost;
},
{
place = (30,291);
type = Stem;
}
);
layerId = m01;
shapes = (
{
closed = 1;
nodes = (
(30,238,l),
(40,-1,l),
(241,-1,l),
(321,159,l),
(260,288,l)
);
}
);
width = 336;
}
);
note = period;
unicode = 46;
},
{
glyphname = comma;
layers = (
{
.lastUpdate = 755016480.987;
hints = (
{
horizontal = 1;
place = (0,21);
target = up;
type = BottomGhost;
},
{
place = (10,291);
type = Stem;
}
);
layerId = m01;
shapes = (
{
closed = 1;
nodes = (
(50,238,l),
(10,-180,l),
(171,-180,l),
(301,0,l),
(240,288,l)
);
}
);
width = 356;
}
);
note = comma;
unicode = 44;
},
{
glyphname = colon;
layers = (
{
.lastUpdate = 755016480.987;
hints = (
{
horizontal = 1;
place = (505,-20);
target = down;
type = TopGhost;
},
{
horizontal = 1;
place = (502,-20);
target = down;
type = TopGhost;
},
{
horizontal = 1;
place = (-1,21);
target = up;
type = BottomGhost;
},
{
place = (8,313);
type = Stem;
}
);
layerId = m01;
shapes = (
{
closed = 1;
nodes = (
(30,218,l),
(40,-1,l),
(261,-1,l),
(300,248,l)
);
},
{
closed = 1;
nodes = (
(8,502,l),
(172,342,l),
(321,505,l),
(192,677,l)
);
}
);
width = 329;
}
);
note = colon;
unicode = 58;
},
{
glyphname = exclam;
layers = (
{
.lastUpdate = 755016480.987;
hints = (
{
horizontal = 1;
place = (819,-20);
target = down;
type = TopGhost;
},
{
horizontal = 1;
place = (0,21);
target = up;
type = BottomGhost;
},
{
place = (20,330);
type = Stem;
}
);
layerId = m01;
shapes = (
{
closed = 1;
nodes = (
(77,277,l),
(241,346,l),
(350,819,l),
(20,819,l)
);
},
{
closed = 1;
nodes = (
(20,0,l),
(271,0,l),
(252,214,l),
(77,159,l)
);
}
);
width = 360;
}
);
note = exclam;
unicode = 33;
},
{
glyphname = question;
layers = (
{
.lastUpdate = 755016480.987;
hints = (
{
horizontal = 1;
place = (820,-20);
target = down;
type = TopGhost;
},
{
horizontal = 1;
place = (0,21);
target = up;
type = BottomGhost;
},
{
place = (10,370);
type = Stem;
}
);
layerId = m01;
shapes = (
{
closed = 1;
nodes = (
(24,820,l),
(150,495,l),
(10,289,l),
(180,303,l),
(380,454,l),
(340,820,l)
);
},
{
closed = 1;
nodes = (
(20,178,l),
(30,0,l),
(231,0,l),
(250,228,l)
);
}
);
width = 400;
}
);
note = question;
unicode = 63;
},
{
glyphname = slash;
layers = (
{
.lastUpdate = 755016480.987;
hints = (
{
horizontal = 1;
place = (820,-20);
target = down;
type = TopGhost;
},
{
horizontal = 1;
place = (-1,21);
target = up;
type = BottomGhost;
},
{
place = (0,385);
type = Stem;
}
);
layerId = m01;
shapes = (
{
closed = 1;
nodes = (
(222,819,l),
(0,-1,l),
(243,0,l),
(385,820,l)
);
}
);
width = 385;
}
);
note = slash;
unicode = 47;
},
{
glyphname = uniFF07;
layers = (
{
.lastUpdate = 755016480.987;
hints = (
{
horizontal = 1;
place = (830,-20);
target = down;
type = TopGhost;
},
{
horizontal = 1;
place = (542,288);
type = Stem;
},
{
place = (20,290);
type = Stem;
}
);
layerId = m01;
shapes = (
{
closed = 1;
nodes = (
(60,820,l),
(20,542,l),
(181,542,l),
(310,830,l)
);
}
);
width = 310;
}
);
note = uniFF07;
unicode = 65287;
},
{
glyphname = hyphen;
layers = (
{
.lastUpdate = 755016480.987;
hints = (
{
horizontal = 1;
place = (271,209);
type = Stem;
},
{
place = (20,440);
type = Stem;
}
);
layerId = m01;
shapes = (
{
closed = 1;
nodes = (
(20,450,l),
(30,271,l),
(421,271,l),
(460,480,l)
);
}
);
width = 480;
}
);
note = hyphen;
unicode = 45;
},
{
glyphname = underscore;
layers = (
{
.lastUpdate = 755016480.987;
hints = (
{
horizontal = 1;
place = (0,21);
target = up;
type = BottomGhost;
},
{
place = (20,440);
type = Stem;
}
);
layerId = m01;
shapes = (
{
closed = 1;
nodes = (
(20,-171,l),
(30,0,l),
(421,0,l),
(460,-141,l)
);
}
);
width = 480;
}
);
note = underscore;
unicode = 95;
},
{
glyphname = parenleft;
layers = (
{
.lastUpdate = 755016480.987;
hints = (
{
horizontal = 1;
place = (819,-20);
target = down;
type = TopGhost;
},
{
place = (30,311);
type = Stem;
}
);
layerId = m01;
shapes = (
{
closed = 1;
nodes = (
(200,819,l),
(30,450,l),
(150,-41,l),
(341,49,l),
(211,334,l),
(340,819,l)
);
}
);
width = 351;
}
);
note = parenleft;
unicode = 40;
},
{
glyphname = parenright;
layers = (
{
.lastUpdate = 755016480.987;
hints = (
{
horizontal = 1;
place = (819,-20);
target = down;
type = TopGhost;
},
{
place = (10,303);
type = Stem;
}
);
layerId = m01;
shapes = (
{
closed = 1;
nodes = (
(151,819,l),
(11,819,l),
(127,419,l),
(10,49,l),
(201,-41,l),
(313,320,l)
);
}
);
width = 343;
}
);
note = parenright;
unicode = 41;
},
{
glyphname = quoteright;
layers = (
{
.lastUpdate = 755016480.987;
hints = (
{
horizontal = 1;
place = (830,-20);
target = down;
type = TopGhost;
},
{
horizontal = 1;
place = (542,288);
type = Stem;
},
{
place = (20,290);
type = Stem;
}
);
layerId = m01;
shapes = (
{
closed = 1;
nodes = (
(60,820,l),
(20,542,l),
(181,542,l),
(310,830,l)
);
}
);
width = 310;
}
);
note = quoteright;
unicode = 8217;
},
{
glyphname = uni2035;
layers = (
{
.lastUpdate = 755016480.987;
hints = (
{
horizontal = 1;
place = (830,-20);
target = down;
type = TopGhost;
},
{
horizontal = 1;
place = (542,288);
type = Stem;
},
{
place = (20,290);
type = Stem;
}
);
layerId = m01;
shapes = (
{
closed = 1;
nodes = (
(60,820,l),
(20,542,l),
(181,542,l),
(310,830,l)
);
}
);
width = 310;
}
);
note = uni2035;
unicode = 8245;
},
{
glyphname = quotesingle;
layers = (
{
.lastUpdate = 755016480.987;
hints = (
{
horizontal = 1;
place = (830,-20);
target = down;
type = TopGhost;
},
{
horizontal = 1;
place = (542,288);
type = Stem;
},
{
place = (20,290);
type = Stem;
}
);
layerId = m01;
shapes = (
{
closed = 1;
nodes = (
(60,820,l),
(20,542,l),
(181,542,l),
(310,830,l)
);
}
);
width = 310;
}
);
note = quotesingle;
unicode = 39;
},
{
glyphname = u1F9D7;
layers = (
{
.lastUpdate = 755016480.987;
hints = (
{
horizontal = 1;
place = (820,-20);
target = down;
type = TopGhost;
},
{
horizontal = 1;
place = (769,61);
type = Stem;
},
{
horizontal = 1;
place = (-1,292);
type = Stem;
},
{
horizontal = 1;
place = (-1,78);
type = Stem;
},
{
place = (647.5,141.5);
type = Stem;
},
{
place = (212.5,74.5);
type = Stem;
},
{
place = (41,99.5);
type = Stem;
}
);
layerId = m01;
shapes = (
{
closed = 1;
nodes = (
(52,830,l),
(30,-1,l),
(288,-1,l),
(444,69,l),
(526,-1,l),
(800,0,l),
(778,799,l),
(579,811,l),
(287,671,l),
(287,820,l)
);
},
{
closed = 1;
nodes = (
(140,769,l),
(212,746,l),
(213,671,l),
(141,667,l)
);
},
{
closed = 1;
nodes = (
(279,462,l),
(312,550,l),
(507,520,l),
(513,451,l)
);
},
{
closed = 1;
nodes = (
(484,220,l),
(690,200,l),
(599,77,l)
);
},
{
closed = 1;
nodes = (
(564,359,l),
(643,391,l),
(652,291,l),
(565,291,l)
);
}
);
width = 830;
}
);
note = u1F9D7;
unicode = 129495;
},
{
glyphname = u1FAA8;
layers = (
{
.lastUpdate = 755016480.987;
hints = (
{
horizontal = 1;
place = (830,-20);
target = down;
type = TopGhost;
},
{
horizontal = 1;
place = (0,21);
target = up;
type = BottomGhost;
},
{
horizontal = 1;
place = (-1,21);
target = up;
type = BottomGhost;
},
{
place = (41,92);
type = Stem;
}
);
layerId = m01;
shapes = (
{
closed = 1;
nodes = (
(52,830,l),
(30,-1,l),
(145,-1,l),
(121,468,l),
(523,500,l),
(588,310,l),
(495,184,l),
(542,-1,l),
(800,0,l),
(778,799,l)
);
}
);
width = 830;
}
);
note = u1FAA8;
unicode = 129704;
},
{
glyphname = at;
layers = (
{
.lastUpdate = 755016480.987;
hints = (
{
horizontal = 1;
place = (0,188);
type = Stem;
},
{
place = (15,740);
type = Stem;
}
);
layerId = m01;
shapes = (
{
closed = 1;
nodes = (
(755,0,l),
(708,278,l),
(548,188,l),
(448,300,l),
(238,188,l),
(245,551,l),
(431,511,l),
(431,571,l),
(496,571,l),
(563,277,l),
(693,367,l),
(613,840,l),
(15,655,l),
(90,0,l)
);
}
);
width = 765;
}
);
note = at;
unicode = 64;
},
{
glyphname = minute;
layers = (
{
.lastUpdate = 755016480.987;
hints = (
{
horizontal = 1;
place = (830,-20);
target = down;
type = TopGhost;
},
{
horizontal = 1;
place = (542,288);
type = Stem;
},
{
place = (20,290);
type = Stem;
}
);
layerId = m01;
shapes = (
{
closed = 1;
nodes = (
(60,820,l),
(20,542,l),
(181,542,l),
(310,830,l)
);
}
);
width = 310;
}
);
note = minute;
unicode = 8242;
},
{
glyphname = Euro;
layers = (
{
.lastUpdate = 755016480.987;
hints = (
{
horizontal = 1;
place = (820,-20);
target = down;
type = TopGhost;
},
{
horizontal = 1;
place = (509,-20);
target = down;
type = TopGhost;
},
{
horizontal = 1;
place = (675,145);
type = Stem;
},
{
horizontal = 1;
place = (-1,167);
type = Stem;
},
{
horizontal = 1;
place = (0,21);
target = up;
type = BottomGhost;
},
{
place = (-10,609);
type = Stem;
}
);
layerId = m01;
shapes = (
{
closed = 1;
nodes = (
(269,819,l),
(-7,509,l),
(122,441,l),
(-10,339,l),
(99,-1,l),
(599,0,l),
(599,166,l),
(317,299,l),
(482,375,l),
(311,427,l),
(515,509,l),
(380,609,l),
(599,675,l),
(599,820,l)
);
}
);
width = 609;
}
);
note = Euro;
unicode = 8364;
},
{
glyphname = arrowup;
layers = (
{
.lastUpdate = 755016480.987;
hints = (
{
horizontal = 1;
place = (830,-20);
target = down;
type = TopGhost;
},
{
horizontal = 1;
place = (509,-20);
target = down;
type = TopGhost;
},
{
place = (10,600);
type = Stem;
}
);
layerId = m01;
shapes = (
{
closed = 1;
nodes = (
(302,830,l),
(10,399,l),
(141,379,l),
(61,-31,l),
(510,-21,l),
(490,509,l),
(610,550,l)
);
}
);
width = 620;
}
);
note = arrowup;
unicode = 8593;
},
{
glyphname = arrowright;
layers = (
{
.lastUpdate = 755016480.987;
hints = (
{
horizontal = 1;
place = (-1,21);
target = up;
type = BottomGhost;
},
{
horizontal = 1;
place = (-11,21);
target = up;
type = BottomGhost;
},
{
place = (30,850);
type = Stem;
}
);
layerId = m01;
shapes = (
{
closed = 1;
nodes = (
(30,569,l),
(30,-1,l),
(533,119,l),
(570,-11,l),
(880,349,l),
(590,759,l),
(510,529,l)
);
}
);
width = 890;
}
);
note = arrowright;
unicode = 8594;
},
{
glyphname = arrowdown;
layers = (
{
.lastUpdate = 755016480.987;
hints = (
{
horizontal = 1;
place = (820,-20);
target = down;
type = TopGhost;
},
{
horizontal = 1;
place = (-1,21);
target = up;
type = BottomGhost;
},
{
place = (10,540);
type = Stem;
}
);
layerId = m01;
shapes = (
{
closed = 1;
nodes = (
(362,-1,l),
(550,559,l),
(410,580,l),
(430,820,l),
(171,820,l),
(131,580,l),
(10,610,l),
(147,-1,l)
);
}
);
width = 620;
}
);
note = arrowdown;
unicode = 8595;
},
{
glyphname = arrowleft;
layers = (
{
.lastUpdate = 755016480.987;
hints = (
{
horizontal = 1;
place = (-1,21);
target = up;
type = BottomGhost;
},
{
horizontal = 1;
place = (-11,21);
target = up;
type = BottomGhost;
},
{
place = (30,850);
type = Stem;
}
);
layerId = m01;
shapes = (
{
closed = 1;
nodes = (
(880,569,l),
(400,529,l),
(320,759,l),
(30,349,l),
(400,-11,l),
(437,119,l),
(880,-1,l)
);
}
);
width = 910;
}
);
note = arrowleft;
unicode = 8592;
},
{
glyphname = acute;
layers = (
{
.lastUpdate = 755016480.987;
hints = (
{
horizontal = 1;
place = (830,-20);
target = down;
type = TopGhost;
},
{
horizontal = 1;
place = (542,288);
type = Stem;
},
{
place = (20,290);
type = Stem;
}
);
layerId = m01;
shapes = (
{
closed = 1;
nodes = (
(60,820,l),
(20,542,l),
(181,542,l),
(310,830,l)
);
}
);
width = 310;
}
);
note = acute;
unicode = 180;
},
{
glyphname = uni02BC;
layers = (
{
.lastUpdate = 755016480.987;
layerId = m01;
shapes = (
{
closed = 1;
nodes = (
(60,820,l),
(20,542,l),
(181,542,l),
(310,830,l)
);
}
);
width = 310;
}
);
note = uni02BC;
unicode = 700;
},
